<svg xmlns:xlink="http://www.w3.org/1999/xlink" xmlns="http://www.w3.org/2000/svg" width="167.461" height="59.01" viewBox="0 0 167.461 59.01">
  <g id="logo" transform="translate(-21.754 -39.485)">
    <g id="Raggruppa_7127" data-name="Raggruppa 7127" transform="translate(21.754 81.802)">
      <path id="Tracciato_36175" data-name="Tracciato 36175" d="M35.176,102.8a1.979,1.979,0,0,1,1.206-.379,1.543,1.543,0,0,1,1.65,1.265,1.2,1.2,0,0,1-.572.913L30,109.867l8.216,6.84a1.336,1.336,0,0,1,.509.988c0,.658-.731,1.138-1.493,1.138a2.078,2.078,0,0,1-1.362-.48l-8.188-6.865c-.888.66-1.743,1.19-2.7,1.875v4.23c0,.81-.888,1.24-1.65,1.24-.792,0-1.586-.431-1.586-1.24V103.612c0-.812.794-1.19,1.586-1.19.762,0,1.65.379,1.65,1.19V110.3l2.126-1.723Z" transform="translate(-21.754 -102.269)" fill="#FFFFFF"></path>
      <path id="Tracciato_36176" data-name="Tracciato 36176" d="M56.279,112.223l-7.426-7.878a1.141,1.141,0,0,1-.379-.76c0-.659.825-1.163,1.713-1.163a1.815,1.815,0,0,1,1.364.582c2.03,2.178,4.218,4.61,6.281,6.89l6.44-6.89a1.84,1.84,0,0,1,1.334-.582c.825,0,1.586.48,1.586,1.138a1.193,1.193,0,0,1-.317.76l-7.361,7.9v5.319c0,.888-.92,1.292-1.649,1.292-.858,0-1.587-.4-1.587-1.292Z" transform="translate(-30.443 -102.269)" fill="#FFFFFF"></path>
      <path id="Tracciato_36177" data-name="Tracciato 36177" d="M95.094,103.182a1.818,1.818,0,0,1,1.585-.76,1.407,1.407,0,0,1,1.523,1.342v13.805c0,.834-.825,1.265-1.617,1.265-.762,0-1.62-.431-1.62-1.265v-9.6l-5.234,6.561a1.755,1.755,0,0,1-1.491.733,1.669,1.669,0,0,1-1.4-.708l-5.267-6.561v9.575c0,.834-.888,1.265-1.65,1.265-.792,0-1.586-.431-1.586-1.265V103.764a1.437,1.437,0,0,1,1.556-1.342,2.012,2.012,0,0,1,1.521.76l6.854,8.586Z" transform="translate(-40.156 -102.269)" fill="#FFFFFF"></path>
      <path id="Tracciato_36178" data-name="Tracciato 36178" d="M116.647,114.53l-2.253,3.572a1.541,1.541,0,0,1-1.364.658c-.888,0-1.713-.5-1.713-1.163a.865.865,0,0,1,.157-.532l9.106-14.186a1.746,1.746,0,0,1,1.493-.683,1.705,1.705,0,0,1,1.428.683l9.074,14.134a1.214,1.214,0,0,1,.222.659c0,.685-.794,1.088-1.65,1.088a1.7,1.7,0,0,1-1.428-.683L127.5,114.53Zm5.425-8.687-4,6.382h7.994Z" transform="translate(-50.879 -102.195)" fill="#FFFFFF"></path>
      <path id="Tracciato_36179" data-name="Tracciato 36179" d="M164.592,102.646c1.015,0,1.587.532,1.587,1.138s-.572,1.192-1.587,1.192h-6.251v12.791c0,.861-.92,1.267-1.65,1.267-.761,0-1.586-.406-1.586-1.267V104.977h-6.251c-1.047,0-1.554-.584-1.554-1.192s.507-1.138,1.554-1.138Z" transform="translate(-62.581 -102.342)" fill="#FFFFFF"></path>
      <path id="Tracciato_36180" data-name="Tracciato 36180" d="M182.285,116.374h11.391a1.366,1.366,0,0,1,1.524,1.24c0,.584-.476,1.14-1.524,1.14H180.921c-1.173,0-1.872-.658-1.872-1.443V104.089c0-.785.7-1.443,1.872-1.443h12.786c.984,0,1.428.557,1.428,1.138a1.3,1.3,0,0,1-1.458,1.192H182.285v4.634H193.1a1.275,1.275,0,0,1,1.428,1.165c0,.584-.444,1.14-1.428,1.14H182.285Z" transform="translate(-72.906 -102.342)" fill="#FFFFFF"></path>
      <path id="Tracciato_36181" data-name="Tracciato 36181" d="M210.441,114.53l-2.253,3.572a1.543,1.543,0,0,1-1.365.658c-.888,0-1.713-.5-1.713-1.163a.865.865,0,0,1,.157-.532l9.107-14.186a1.747,1.747,0,0,1,1.493-.683,1.7,1.7,0,0,1,1.427.683l9.074,14.134a1.214,1.214,0,0,1,.222.659c0,.685-.794,1.088-1.65,1.088a1.7,1.7,0,0,1-1.428-.683l-2.222-3.547Zm5.426-8.687c-1.4,2.23-2.571,4.1-4,6.382h7.994Z" transform="translate(-81.381 -102.195)" fill="#FFFFFF"></path>
      <path id="Tracciato_36182" data-name="Tracciato 36182" d="M257.234,103.182a1.821,1.821,0,0,1,1.586-.76,1.408,1.408,0,0,1,1.524,1.342v13.805c0,.834-.825,1.265-1.619,1.265-.762,0-1.617-.431-1.617-1.265v-9.6l-5.236,6.561a1.755,1.755,0,0,1-1.491.733,1.662,1.662,0,0,1-1.4-.708l-5.267-6.561v9.575c0,.834-.888,1.265-1.65,1.265-.794,0-1.586-.431-1.586-1.265V103.764a1.436,1.436,0,0,1,1.554-1.342,2.014,2.014,0,0,1,1.523.76l6.854,8.586Z" transform="translate(-92.883 -102.269)" fill="#FFFFFF"></path>
    </g>
    <g id="Raggruppa_7128" data-name="Raggruppa 7128" transform="translate(51.673 39.485)">
      <path id="Tracciato_36183" data-name="Tracciato 36183" d="M82.141,49.535c-2.02-3.312-4.285-6.82-16.05-10.05,1.636,2,3.86,5.214,6.619,8.271a19.036,19.036,0,0,0,11.586,4.4A11.083,11.083,0,0,1,82.141,49.535Z" transform="translate(-66.091 -39.485)" fill="#83A3D6"></path>
      <path id="Tracciato_36184" data-name="Tracciato 36184" d="M137.627,49.752c-6.079-3.875-11.472-5.16-16.411-5.048-6.719.151-12.624,2.906-18.212,5.342h0c-4.965,2.248-9.675,4.242-14.537,4.414-.079,0-.158.009-.237.011a18.426,18.426,0,0,1-10.135-2.8c-.672-.4-1.35-.852-2.034-1.354,9.026,9.81,16.563,12.773,23.2,12.626a28.866,28.866,0,0,0,11.313-2.953h0c8.532-4.043,15.943-10.2,24.277-10.409A16.653,16.653,0,0,1,137.627,49.752Z" transform="translate(-69.334 -41.18)" fill="#005FAC"></path>
      <path id="Tracciato_36185" data-name="Tracciato 36185" d="M202.049,76.252c-4.641-4.308-8.913-6.05-13.08-6.3a14.755,14.755,0,0,1,1.564,2.08c2.022,3.313,4.285,6.82,16.05,10.051C205.381,80.614,203.863,78.488,202.049,76.252Z" transform="translate(-106.05 -49.391)" fill="#83A3D6"></path>
      <path id="Tracciato_36186" data-name="Tracciato 36186" d="M173.775,67.876c-8.506-8.823-15.755-11.511-22.165-11.366a29.587,29.587,0,0,0-11.587,3.023h0c-8.53,4.043-15.943,10.2-24.277,10.409a16.655,16.655,0,0,1-2.774-.175c6.079,3.875,11.472,5.159,16.411,5.048,6.72-.152,12.624-2.906,18.212-5.342h0c5.119-2.319,10.038-4.429,15.131-4.547.268-.007.536,0,.805,0A19.408,19.408,0,0,1,174.835,69C174.48,68.617,174.125,68.24,173.775,67.876Z" transform="translate(-81.336 -45.019)" fill="#005FAC"></path>
    </g>
  </g>
</svg>