<svg xmlns="http://www.w3.org/2000/svg" id="iconsMap">
<path d="M185.05,31.27h-29.11l-4.42,6.94-4.42,6.94h22.42c-1.34,4.53-3.88,8.44-7.36,11.21-3.47,2.78-7.87,4.42-12.91,4.42-6.33,0-12.01-2.65-16.11-6.89-4.1-4.24-6.62-10.08-6.62-16.46s2.55-12.04,6.68-16.23c4.14-4.19,9.87-6.82,16.25-6.82,2.78,0,5.35,.44,7.71,1.24,2.37,.8,4.53,1.95,6.48,3.39l3.91-6.22,3.91-6.22c-2.98-2.11-6.35-3.75-10.03-4.87-3.68-1.12-7.66-1.71-11.88-1.71-5.61,0-10.7,1.03-15.23,2.89-4.53,1.86-8.49,4.56-11.83,7.91-7.97,7.97-10.21,16.02-11.8,23.43-1.59,7.41-2.55,14.17-7.95,19.57-2.26,2.26-4.76,3.99-7.48,5.14-2.73,1.16-5.68,1.75-8.87,1.75-6.53,0-12.42-2.67-16.68-6.92-4.26-4.24-6.88-10.05-6.88-16.33s2.62-11.93,6.88-16.16c4.26-4.23,10.14-6.93,16.68-6.98,2.73,.05,5.27,.46,7.61,1.22,2.34,.76,4.47,1.86,6.38,3.3l3.96-6.22,3.96-6.22c-2.98-2.11-6.35-3.7-10.03-4.77-3.68-1.07-7.66-1.61-11.88-1.61-6.48,0-12.52,1.57-17.8,4.31-5.27,2.74-9.77,6.65-13.17,11.33-1.34-4.12-4.09-7.64-7.86-10.13-3.77-2.5-8.55-3.96-13.95-3.96H0V73.55H37.13c4.68,0,8.85-1.1,12.32-3.02,3.47-1.92,6.25-4.64,8.15-7.88,3.45,3.81,7.66,6.92,12.45,9.08,4.78,2.16,10.13,3.37,15.84,3.37,6.74,0,12.88-1.57,18.21-4.37,5.32-2.8,9.82-6.84,13.27-11.78,3.29,4.89,7.79,8.92,13.15,11.74,5.36,2.82,11.58,4.41,18.32,4.41,10.34,0,19.52-4.22,26.11-11.02,6.6-6.8,10.61-16.19,10.61-26.53,0-1.08-.05-2.13-.14-3.18-.09-1.04-.22-2.07-.37-3.1ZM15.64,22.78v-7.87h17.8c2.26,0,4.27,.82,5.71,2.21,1.44,1.39,2.31,3.34,2.31,5.61s-.87,4.24-2.31,5.66c-1.44,1.42-3.45,2.26-5.71,2.26H15.64v-7.87Zm27.34,35.01c-1.54,1.48-3.68,2.38-6.04,2.38H15.64v-16.35h21.29c2.37,0,4.5,.87,6.04,2.33,1.54,1.45,2.49,3.49,2.49,5.8s-.95,4.37-2.49,5.85Z" fill='#ffffff'></path>
        <path d="M213.51,1.05h-15.21l21.15,33.23c1.27,2,1.27,4.54,0,6.54l-21.15,33.23h15.21c2.86,0,5.53-1.46,7.07-3.88l20.76-32.62L220.58,4.92c-1.54-2.42-4.2-3.88-7.07-3.88Z" fill='#4efdd3'></path>
        <path d="M263.23,34.28L284.38,1.05h-15.21c-2.86,0-5.53,1.46-7.06,3.88l-20.76,32.62,20.76,32.62c1.54,2.42,4.2,3.88,7.06,3.88h15.21l-21.15-33.23c-1.27-2-1.27-4.54,0-6.54Z" fill='#4efdd3'></path>
</svg>